<svg xmlns="http://www.w3.org/2000/svg" width="22" height="23" viewBox="0 0 22 23">
  <path d="M7.67363636,5.65 L0.899090909,12.14 L7.68409091,18.62 L14.4690909,12.14 L7.67363636,5.65 M3.85772727,12.14 L7.68409091,8.48 L11.5,12.14 L7.67363636,15.8 L3.85772727,12.14 M20.24,5.88 C18.4104545,4.12 15.9954545,3.24 13.5909091,3.24 L13.5909091,0 L9.15818182,4.24 L13.5909091,8.48 L13.5909091,5.24 C15.4622727,5.24 17.3336364,5.92 18.7659091,7.29 C21.62,10.02 21.62,14.46 18.7659091,17.19 C17.3336364,18.56 15.4622727,19.24 13.5909091,19.24 C12.5768182,19.24 11.5627273,19.03 10.6218182,18.63 L9.06409091,20.12 C10.4545455,20.86 12.0227273,21.24 13.5909091,21.24 C15.9954545,21.24 18.4104545,20.36 20.24,18.6 C23.92,15.09 23.92,9.39 20.24,5.88 Z" transform="rotate(90 11 10.5)"/>
</svg>
